# xmcd
#
# Track frame offsets:
#	150
#	13337
#	25793
#	37680
#	49574
#	60510
#	72862
#	84066
#	95660
#	105604
#	117923
#	130207
#
# Disc length: 1899 seconds
#
# Revision: 0
# Processed by: cddbd v1.4PL0 Copyright (c) Steve Scherf et al.
# Submitted via: audiograbber 1.80
#
DISCID=8d07690c
DTITLE=Williams, Hank Sr - All-Time Greatest Hits - Vol 3
DYEAR=1900
DGENRE=
TTITLE0=Wedding Bells
TTITLE1=Cold Cold Heart
TTITLE2=Long Gone Lonesome Blues
TTITLE3=Why Should We Try Anymore
TTITLE4=Moanin' The Blues
TTITLE5=Howlin' At The Moon
TTITLE6=Crazy Heart
TTITLE7=Baby, We're Really In Love
TTITLE8=Honky Tonk Blues
TTITLE9=Half As Much
TTITLE10=Your Cheatin' Heart
TTITLE11=I Saw The Light
EXTD=
EXTT0=
EXTT1=
EXTT2=
EXTT3=
EXTT4=
EXTT5=
EXTT6=
EXTT7=
EXTT8=
EXTT9=
EXTT10=
EXTT11=
PLAYORDER=
